HIERARCHY
ROOT Hips
{
  OFFSET -21.6994 31.6921 0
  CHANNELS 6 Xposition Yposition Zposition Zrotation Xrotation Yrotation
  JOINT Bip01_Pelvis
  {
    OFFSET 0 0 0
    CHANNELS 6 Xposition Yposition Zposition Zrotation Xrotation Yrotation
    JOINT BN_Tail_01
    {
      OFFSET -7.25226 -1.74978 0
      CHANNELS 6 Xposition Yposition Zposition Zrotation Xrotation Yrotation
      JOINT BN_Tail_02
      {
        OFFSET 15.788 0 0
        CHANNELS 6 Xposition Yposition Zposition Zrotation Xrotation Yrotation
        JOINT BN_Tail_03
        {
          OFFSET 16.0015 0 0
          CHANNELS 6 Xposition Yposition Zposition Zrotation Xrotation Yrotation
          JOINT BN_Tail_04
          {
            OFFSET 16.1689 0 0
            CHANNELS 6 Xposition Yposition Zposition Zrotation Xrotation Yrotation
            End Site
            {
              OFFSET 0 0 0
            }
          }
        }
      }
    }
    JOINT Bip01_Spine
    {
      OFFSET 6.38383 2.70859 0.585432
      CHANNELS 6 Xposition Yposition Zposition Zrotation Xrotation Yrotation
      JOINT BN_Mane_02
      {
        OFFSET 6.12662 8.45826 0
        CHANNELS 6 Xposition Yposition Zposition Zrotation Xrotation Yrotation
        End Site
        {
          OFFSET 0 0 0
        }
      }
      JOINT Bip01_R_Thigh
      {
        OFFSET -7.04074 -2.18223 -5.47025
        CHANNELS 6 Xposition Yposition Zposition Zrotation Xrotation Yrotation
        JOINT Bip01_R_Calf
        {
          OFFSET 13.6591 0 0
          CHANNELS 6 Xposition Yposition Zposition Zrotation Xrotation Yrotation
          JOINT Bip01_R_HorseLink
          {
            OFFSET 9.07516 0 0
            CHANNELS 6 Xposition Yposition Zposition Zrotation Xrotation Yrotation
            JOINT Bip01_R_Foot
            {
              OFFSET 8.13856 0 0
              CHANNELS 6 Xposition Yposition Zposition Zrotation Xrotation Yrotation
              JOINT Bip01_R_Toe0
              {
                OFFSET 3.79737 6.30086 0
                CHANNELS 6 Xposition Yposition Zposition Zrotation Xrotation Yrotation
                JOINT Bip01_R_Toe0Nub
                {
                  OFFSET 0.838764 0 0
                  CHANNELS 6 Xposition Yposition Zposition Zrotation Xrotation Yrotation
                  End Site
                  {
                    OFFSET 0 0 0
                  }
                }
              }
            }
          }
        }
      }
      JOINT Bip01_L_Thigh
      {
        OFFSET -6.18667 -2.14873 5.3508
        CHANNELS 6 Xposition Yposition Zposition Zrotation Xrotation Yrotation
        JOINT Bip01_L_Calf
        {
          OFFSET 13.6591 0 0
          CHANNELS 6 Xposition Yposition Zposition Zrotation Xrotation Yrotation
          JOINT Bip01_L_HorseLink
          {
            OFFSET 9.07515 0 0
            CHANNELS 6 Xposition Yposition Zposition Zrotation Xrotation Yrotation
            JOINT Bip01_L_Foot
            {
              OFFSET 8.13856 0 0
              CHANNELS 6 Xposition Yposition Zposition Zrotation Xrotation Yrotation
              JOINT Bip01_L_Toe0
              {
                OFFSET 3.79737 6.30086 0
                CHANNELS 6 Xposition Yposition Zposition Zrotation Xrotation Yrotation
                JOINT Bip01_L_Toe0Nub
                {
                  OFFSET 0.838764 0 0
                  CHANNELS 6 Xposition Yposition Zposition Zrotation Xrotation Yrotation
                  End Site
                  {
                    OFFSET 0 0 0
                  }
                }
              }
            }
          }
        }
      }
      JOINT Bip01_Spine1
      {
        OFFSET 12.1687 -0.0105438 0
        CHANNELS 6 Xposition Yposition Zposition Zrotation Xrotation Yrotation
        JOINT BN_Mane_R_01
        {
          OFFSET -0.157498 5.09008 -6.54008
          CHANNELS 6 Xposition Yposition Zposition Zrotation Xrotation Yrotation
          End Site
          {
            OFFSET 0 0 0
          }
        }
        JOINT BN_Mane_R_02
        {
          OFFSET -0.1575 5.09007 6.54
          CHANNELS 6 Xposition Yposition Zposition Zrotation Xrotation Yrotation
          End Site
          {
            OFFSET 0 0 0
          }
        }
        JOINT BN_Mane_01
        {
          OFFSET 8.29709 8.50414 0
          CHANNELS 6 Xposition Yposition Zposition Zrotation Xrotation Yrotation
          End Site
          {
            OFFSET 0 0 0
          }
        }
        JOINT Bip01_Spine2
        {
          OFFSET 13.2802 -0.0100708 1.51992e-005
          CHANNELS 6 Xposition Yposition Zposition Zrotation Xrotation Yrotation
          JOINT Bip01_Neck
          {
            OFFSET 12.4891 -6.66662 0
            CHANNELS 6 Xposition Yposition Zposition Zrotation Xrotation Yrotation
            JOINT Bip01_R_Clavicle
            {
              OFFSET -7.4542 -2.82621 -1.17874
              CHANNELS 6 Xposition Yposition Zposition Zrotation Xrotation Yrotation
              JOINT Bip01_R_UpperArm
              {
                OFFSET 13.2557 0 0
                CHANNELS 6 Xposition Yposition Zposition Zrotation Xrotation Yrotation
                JOINT Bip01_R_Forearm
                {
                  OFFSET 12.8897 0 0
                  CHANNELS 6 Xposition Yposition Zposition Zrotation Xrotation Yrotation
                  JOINT Bip01_R_Hand
                  {
                    OFFSET 11.2622 0 0
                    CHANNELS 6 Xposition Yposition Zposition Zrotation Xrotation Yrotation
                    JOINT Bip01_R_Finger0
                    {
                      OFFSET 3.98015 -0.208661 -0.0949803
                      CHANNELS 6 Xposition Yposition Zposition Zrotation Xrotation Yrotation
                      JOINT Bip01_R_Finger0Nub
                      {
                        OFFSET 6.57561 0 0
                        CHANNELS 6 Xposition Yposition Zposition Zrotation Xrotation Yrotation
                        End Site
                        {
                          OFFSET 0 0 0
                        }
                      }
                    }
                  }
                }
              }
            }
            JOINT Bip01_L_Clavicle
            {
              OFFSET -7.4541 -2.82679 1.17708
              CHANNELS 6 Xposition Yposition Zposition Zrotation Xrotation Yrotation
              JOINT Bip01_L_UpperArm
              {
                OFFSET 13.2558 0 0
                CHANNELS 6 Xposition Yposition Zposition Zrotation Xrotation Yrotation
                JOINT Bip01_L_Forearm
                {
                  OFFSET 12.8897 0 0
                  CHANNELS 6 Xposition Yposition Zposition Zrotation Xrotation Yrotation
                  JOINT Bip01_L_Hand
                  {
                    OFFSET 11.2622 0 0
                    CHANNELS 6 Xposition Yposition Zposition Zrotation Xrotation Yrotation
                    JOINT Bip01_L_Finger0
                    {
                      OFFSET 3.98014 -0.20866 0.0949764
                      CHANNELS 6 Xposition Yposition Zposition Zrotation Xrotation Yrotation
                      JOINT Bip01_L_Finger0Nub
                      {
                        OFFSET 6.57562 0 0
                        CHANNELS 6 Xposition Yposition Zposition Zrotation Xrotation Yrotation
                        End Site
                        {
                          OFFSET 0 0 0
                        }
                      }
                    }
                  }
                }
              }
            }
            JOINT Bip01_Neck1
            {
              OFFSET 4.19352 -0.00332451 0
              CHANNELS 6 Xposition Yposition Zposition Zrotation Xrotation Yrotation
              JOINT Bip01_Head
              {
                OFFSET 4.17604 0.298252 0
                CHANNELS 6 Xposition Yposition Zposition Zrotation Xrotation Yrotation
                JOINT BN_Eye_R_01
                {
                  OFFSET 6.53258 -3.90694 -2.55361
                  CHANNELS 6 Xposition Yposition Zposition Zrotation Xrotation Yrotation
                  End Site
                  {
                    OFFSET 0 0 0
                  }
                }
                JOINT BN_Eye_L_01
                {
                  OFFSET 6.5326 -3.90694 2.55371
                  CHANNELS 6 Xposition Yposition Zposition Zrotation Xrotation Yrotation
                  End Site
                  {
                    OFFSET 0 0 0
                  }
                }
                JOINT BN_Ear_R_01
                {
                  OFFSET 1.75934 -4.1584 -4.45634
                  CHANNELS 6 Xposition Yposition Zposition Zrotation Xrotation Yrotation
                  End Site
                  {
                    OFFSET 0 0 0
                  }
                }
                JOINT BN_Ear_L_01
                {
                  OFFSET 1.75933 -4.15841 4.45616
                  CHANNELS 6 Xposition Yposition Zposition Zrotation Xrotation Yrotation
                  End Site
                  {
                    OFFSET 0 0 0
                  }
                }
                JOINT BN_Beard_L_01
                {
                  OFFSET 11.2964 -1.06183 2.32054
                  CHANNELS 6 Xposition Yposition Zposition Zrotation Xrotation Yrotation
                  End Site
                  {
                    OFFSET 0 0 0
                  }
                }
                JOINT BN_Beard_R_01
                {
                  OFFSET 11.2964 -1.06182 -2.32036
                  CHANNELS 6 Xposition Yposition Zposition Zrotation Xrotation Yrotation
                  End Site
                  {
                    OFFSET 0 0 0
                  }
                }
                JOINT BN_Mouth_0
                {
                  OFFSET 1.3149 1.30001 0
                  CHANNELS 6 Xposition Yposition Zposition Zrotation Xrotation Yrotation
                  End Site
                  {
                    OFFSET 0 0 0
                  }
                }
                JOINT Bip01_HeadNub
                {
                  OFFSET 12.6869 0 0
                  CHANNELS 6 Xposition Yposition Zposition Zrotation Xrotation Yrotation
                  End Site
                  {
                    OFFSET 0 0 0
                  }
                }
              }
            }
          }
        }
      }
    }
  }
}
MOTION
Frames:	4
Frame Time:	0.0333333
-8.80534 28.143 -1.37331 -180 -90 -90 0 1.13687e-013 0 -93.6622 -0.294494 -102.048 -7.25225 -1.74978 -1.45512e-011 -63.5425 2.04475 170.097 15.788 -1.60405e-011 -0.000510216 -12.1105 7.33033 -20.4974 16.0015 3.81471e-006 -0.000591278 -12.5491 0.474229 -43.1328 16.1689 3.81502e-006 -0.000581741 6.38725 -30.5229 -47.1379 6.31876 2.67049 -1.17263 -5.09149 1.62162 3.14632 6.12662 8.45826 -8.80896e-010 -88.9944 -0.0282288 -179.971 -5.81693 -3.3401 -4.48905 -70.7577 -8.06089 177.826 13.6591 -1.90735e-006 -4.76837e-007 -51.2654 6.83805e-006 7.66119e-006 9.07515 1.90735e-006 -5.32907e-015 65.9742 3.46713e-006 -8.70267e-006 8.13855 7.10543e-015 4.76837e-007 0.953517 1.89228 5.82368 3.79737 6.30086 4.76869e-007 89.9418 0.00246753 2.50478e-006 0.838767 -1.49012e-008 -4.76837e-007 3.87243e-008 2.75101e-012 4.53384e-011 -6.4145 -3.03239 6.34402 -106.565 7.81764 -179.154 13.6591 -8.88179e-015 -8.88178e-016 -86.8588 7.05973e-007 1.1598e-005 9.07516 -1.87921e-011 0.000555992 63.7493 4.58221e-006 -9.06913e-006 8.13856 -3.16192e-011 0.00077343 8.04365 -13.3241 4.08623 3.79775 6.30061 -5.74012e-008 86.6495 0.138289 -30.2921 0.83877 -2.98023e-008 4.76837e-007 179.961 0.00580942 -0.000161999 12.1713 -0.0104256 5.07991e-006 27.1731 -1.76084 -4.6316 -0.157495 5.09008 -6.54008 -92.7406 -0.0220269 -167.965 -0.1575 5.09007 6.54 87.255 -0.000386726 12.0139 8.2971 8.50413 2.22765e-009 -91.6512 -0.0224304 -179.978 13.2796 -0.0099659 2.5399e-006 12.3007 -0.252538 3.33757 12.4881 -6.66636 -5.07961e-006 -9.37148 9.14757 -4.43542 -7.21101 -3.59746 -0.055829 -175.781 -40.4864 78.3148 13.2557 1.90735e-006 1.56319e-013 46.4531 47.9175 -77.4999 12.8897 9.53674e-007 1.19209e-007 -100.467 -6.94579e-006 -1.86759e-005 11.2622 2.86102e-006 -2.38419e-007 -107.938 80.0499 119.797 3.98015 -0.208661 -0.0949784 10.8642 24.5753 -77.7113 6.57561 6.21724e-015 -7.10543e-015 179.96 1.72886e-005 1.73627e-005 -7.03027 -3.22355 2.26186 -161.711 56.925 -104.102 13.2558 7.10543e-015 1.59872e-014 -28.1363 -84.2549 13.2418 12.8897 -2.86102e-006 2.38419e-007 -113.369 -7.02136e-008 1.95641e-006 11.2622 1.06581e-014 -3.55271e-015 -16.7719 -84.1969 -27.4542 3.98015 -0.208658 0.0949744 -11.1305 -0.935463 21.6754 6.57562 -4.76837e-007 4.66294e-015 -3.34121e-007 -8.33468e-009 -2.01803e-008 4.19291 -0.0032177 2.54014e-006 31.4982 -2.13899 -9.02764 4.17603 0.298258 1.70837e-009 30.6215 -20.4706 -0.13108 6.53258 -3.90694 -2.55361 133.025 18.1402 163.594 6.5326 -3.90695 2.55371 -46.9761 18.1112 -16.4184 1.75934 -4.15839 -4.45634 24.8378 -39.8986 139.3 1.75933 -4.1584 4.45617 -155.15 -39.8866 -40.6861 11.2964 -1.06184 2.32054 150.62 5.40847 -117.272 11.2964 -1.06182 -2.32035 -28.7853 13.7277 103.347 1.31489 1.30001 4.77632e-008 -176.883 -0.0198212 -179.999 12.6869 3.8147e-006 -3.55271e-015 -2.57073e-007 3.36499e-009 -1.28824e-009 
-8.94266 28.1416 -1.35553 -180 -90 -90 0 1.13687e-013 0 -93.6512 -0.297343 -102.013 -7.25225 -1.74978 -1.45526e-011 -63.4332 2.10413 170.493 15.788 -1.62466e-011 -0.000510216 -12.1653 7.25906 -20.3541 16.0015 3.81471e-006 -0.000591278 -12.7038 0.459803 -43.8095 16.1689 3.81502e-006 -0.000581741 7.03832 -30.3165 -47.9471 6.32007 2.67035 -1.16918 -5.09152 1.61766 3.15677 6.12662 8.45826 -8.76516e-010 -88.9944 -0.0281677 -179.971 -5.81705 -3.33968 -4.49305 -71.4214 -7.99809 177.744 13.6591 -1.90735e-006 -4.76837e-007 -52.2181 6.70066e-006 7.76624e-006 9.07515 1.90735e-006 -7.10543e-015 66.3339 3.43066e-006 -8.73511e-006 8.13855 0 4.76837e-007 0.890282 1.88355 5.79576 3.79737 6.30086 4.76873e-007 89.9418 0.00246692 2.50529e-006 0.838767 -1.49012e-008 -4.76837e-007 3.87243e-008 2.75101e-012 4.53384e-011 -6.41576 -3.03266 6.34005 -107.071 7.87157 -179.124 13.6591 -9.32587e-015 0 -87.0475 6.16402e-007 1.16038e-005 9.07516 -1.88436e-011 0.000555992 63.4245 1.35922e-005 -4.56127e-006 8.13856 -3.15268e-011 0.00077343 8.08917 -13.3154 4.1442 3.79775 6.30061 -5.73155e-008 86.6237 0.137498 -30.2896 0.83877 -2.98023e-008 4.76837e-007 179.961 0.00580942 -0.000161999 12.1713 -0.0104256 5.07991e-006 27.1236 -1.74143 -4.56054 -0.157495 5.09008 -6.54008 -92.7406 -0.0220419 -167.965 -0.1575 5.09007 6.54 87.255 -0.0003954 12.014 8.2971 8.50413 2.10026e-009 -91.6512 -0.0224304 -179.978 13.2796 -0.0099659 2.5399e-006 12.3434 -0.25946 3.35972 12.4881 -6.66636 -5.07954e-006 -9.4459 9.09201 -4.40918 -7.20694 -3.60583 -0.0622583 -175.7 -40.5455 78.3045 13.2557 1.90735e-006 1.52767e-013 46.2039 48.2573 -77.2076 12.8897 9.53674e-007 1.19209e-007 -100.954 -6.78552e-006 -1.87312e-005 11.2622 2.86102e-006 -2.38419e-007 -106.633 80.0429 119.342 3.98015 -0.208661 -0.0949784 10.9078 24.6205 -77.7975 6.57561 1.15463e-014 -1.77636e-015 179.96 1.72886e-005 1.73627e-005 -7.02636 -3.23476 2.25812 -161.683 56.8686 -104.032 13.2558 0 3.55271e-015 -32.9707 -84.5658 8.27955 12.8897 -2.86102e-006 2.38419e-007 -113.156 -5.81903e-008 1.94983e-006 11.2622 7.10542e-015 -8.88178e-015 -16.9224 -84.4056 -27.85 3.98015 -0.208658 0.0949744 -11.1295 -0.938734 21.638 6.57562 -4.76837e-007 9.10383e-015 -3.33977e-007 -8.33468e-009 -2.0324e-008 4.19291 -0.0032177 2.54014e-006 31.0978 -2.0627 -8.99247 4.17603 0.298258 1.67144e-009 30.9397 -20.3663 -0.205838 6.53258 -3.90694 -2.55361 133.025 18.1401 163.594 6.5326 -3.90695 2.55371 -46.9761 18.1111 -16.4185 1.75934 -4.15839 -4.45634 24.8446 -39.9289 138.421 1.75933 -4.1584 4.45617 -155.152 -39.8887 -41.5671 11.2964 -1.06184 2.32054 151.204 6.41053 -115.923 11.2964 -1.06182 -2.32035 -28.7598 13.5144 102.883 1.31489 1.30001 4.692e-008 -177.049 -0.0293121 -179.999 12.6869 3.8147e-006 -1.77636e-015 -2.57073e-007 3.36501e-009 -1.28824e-009 
-9.08274 28.1402 -1.33781 -180 -90 -90 0 1.13687e-013 0 -93.645 -0.298019 -101.989 -7.25225 -1.74978 -1.45501e-011 -63.3208 2.16085 170.889 15.788 -1.64491e-011 -0.000510216 -12.2255 7.18356 -20.1976 16.0015 3.81471e-006 -0.000591278 -12.8854 0.442413 -44.4434 16.1689 3.81502e-006 -0.000581741 7.67883 -30.1044 -48.7091 6.32073 2.67026 -1.16684 -5.08832 1.61679 3.17705 6.12662 8.45826 -8.76399e-010 -88.9944 -0.0281067 -179.971 -5.81839 -3.33976 -4.49732 -72.0931 -7.92999 177.66 13.6591 -1.90735e-006 -4.76837e-007 -53.1631 6.56329e-006 7.86828e-006 9.07515 1.90735e-006 -4.44089e-015 66.6843 3.39498e-006 -8.76602e-006 8.13855 0 4.76837e-007 0.828646 1.87506 5.76855 3.79737 6.30086 4.76887e-007 89.9418 0.00246731 2.50556e-006 0.838767 -1.49012e-008 -4.76837e-007 3.87243e-008 2.75101e-012 4.53384e-011 -6.41866 -3.03264 6.33542 -107.597 7.93072 -179.093 13.6591 -2.22045e-015 -8.88178e-016 -87.2314 6.2964e-007 1.16041e-005 9.07516 -1.89022e-011 0.000555992 63.0899 1.36181e-005 -4.48174e-006 8.13856 -3.14646e-011 0.00077343 8.13429 -13.3065 4.20753 3.79775 6.30061 -5.71848e-008 86.596 0.139586 -30.2749 0.83877 -2.98023e-008 4.76837e-007 179.961 0.00580942 -0.000161999 12.1713 -0.0104256 5.07991e-006 27.0791 -1.71632 -4.47897 -0.157495 5.09008 -6.54008 -92.7406 -0.022027 -167.965 -0.1575 5.09007 6.54 87.255 -0.00038205 12.0139 8.2971 8.50413 1.9524e-009 -91.6512 -0.0224304 -179.978 13.2796 -0.0099659 2.5399e-006 12.3882 -0.25985 3.37721 12.4881 -6.66636 -5.07945e-006 -9.51063 9.01539 -4.36249 -7.20244 -3.61337 -0.0720698 -175.596 -40.6161 78.3318 13.2557 1.90735e-006 1.43885e-013 45.9577 48.6102 -76.9044 12.8897 9.53674e-007 1.19209e-007 -101.481 -6.61163e-006 -1.87896e-005 11.2622 2.86102e-006 -2.38419e-007 -105.262 80.0317 118.88 3.98015 -0.208661 -0.0949784 10.9471 24.66 -77.8774 6.57561 4.44089e-015 -1.02141e-014 179.96 1.72886e-005 1.73628e-005 -7.02504 -3.24482 2.24832 -161.708 56.8032 -103.919 13.2558 3.55271e-015 8.88178e-015 -38.7133 -84.8495 2.41562 12.8897 -2.86102e-006 2.38419e-007 -112.941 -4.45553e-008 1.94299e-006 11.2622 1.42108e-014 -5.32907e-015 -17.0941 -84.6214 -28.2719 3.98015 -0.208658 0.0949744 -11.1282 -0.940925 21.6082 6.57562 -4.76837e-007 1.55431e-015 -3.33977e-007 -8.33468e-009 -2.0324e-008 4.19291 -0.0032177 2.54014e-006 30.7212 -1.99576 -8.94196 4.17603 0.298258 1.62872e-009 31.2487 -20.168 -0.260588 6.53258 -3.90694 -2.55361 133.025 18.1401 163.594 6.5326 -3.90695 2.55371 -46.9761 18.1112 -16.4184 1.75934 -4.15839 -4.45634 24.8505 -39.9584 137.563 1.75933 -4.1584 4.45617 -155.153 -39.8908 -42.4258 11.2964 -1.06184 2.32054 151.491 7.33751 -113.933 11.2964 -1.06182 -2.32035 -28.6957 13.5713 102.548 1.31489 1.30001 4.57069e-008 -177.21 -0.0385437 -179.999 12.6869 3.8147e-006 0 -2.57073e-007 3.36501e-009 -1.28823e-009 
-9.23807 28.1388 -1.31891 -180 -90 -90 0 1.13687e-013 0 -93.6356 -0.298387 -101.969 -7.25225 -1.74978 -1.45506e-011 -63.203 2.2178 171.298 15.788 -1.66374e-011 -0.000510216 -12.287 7.10564 -20.0283 16.0015 3.8147e-006 -0.000591278 -13.101 0.413514 -45.0581 16.1689 3.81502e-006 -0.000581741 8.33283 -29.8797 -49.4382 6.32074 2.67023 -1.16558 -5.0889 1.61874 3.21156 6.12662 8.45826 -8.77278e-010 -88.9944 -0.0281067 -179.971 -5.81434 -3.34006 -4.50358 -72.7995 -7.85209 177.57 13.6591 -1.90735e-006 -4.76837e-007 -54.1407 6.41857e-006 7.9716e-006 9.07515 1.90735e-006 -7.10543e-015 67.0404 3.35966e-006 -8.79804e-006 8.13855 0 4.76837e-007 0.76637 1.86649 5.74089 3.79737 6.30086 4.7686e-007 89.9418 0.0024677 2.50502e-006 0.838767 -1.49012e-008 -4.76837e-007 3.87243e-008 2.75101e-012 4.53384e-011 -6.4234 -3.03231 6.32988 -108.171 8.00061 -179.058 13.6591 -1.02141e-014 -1.77636e-015 -87.4284 5.89195e-007 1.16069e-005 9.07516 -1.89644e-011 0.000555992 62.7159 4.74352e-006 -8.9848e-006 8.13856 -3.14149e-011 0.00077343 8.17709 -13.2972 4.27509 3.79775 6.30061 -5.70918e-008 86.5708 0.139282 -30.2924 0.83877 -2.98023e-008 4.76837e-007 179.961 0.00580942 -0.000161999 12.1713 -0.0104256 5.07991e-006 27.0412 -1.68805 -4.38251 -0.157495 5.09008 -6.54008 -92.7406 -0.0220269 -167.965 -0.1575 5.09007 6.54 87.255 -0.000383128 12.0139 8.2971 8.50413 1.7725e-009 -91.6512 -0.0224457 -179.978 13.2796 -0.0099659 2.5399e-006 12.4368 -0.246829 3.39019 12.4881 -6.66636 -5.07934e-006 -9.56515 8.91071 -4.29038 -7.1988 -3.61957 -0.0862861 -175.482 -40.7159 78.4007 13.2557 1.90735e-006 1.58096e-013 45.6909 48.9927 -76.5599 12.8897 9.53674e-007 1.19209e-007 -102.08 1.47061e-006 -1.71669e-005 11.2622 2.86102e-006 -2.38419e-007 -103.762 80.0128 118.364 3.98015 -0.208661 -0.0949784 10.9872 24.7001 -77.9586 6.57561 1.06581e-014 -1.24345e-014 179.96 1.72886e-005 1.73628e-005 -7.02485 -3.25485 2.23463 -161.807 56.7247 -103.735 13.2558 -1.42109e-014 -3.55271e-015 -45.6067 -85.1069 -4.5975 12.8897 -2.86102e-006 2.38419e-007 -112.691 -2.91193e-008 1.93637e-006 11.2622 1.77636e-015 -3.55271e-015 -17.3617 -84.8719 -28.8052 3.98015 -0.208658 0.0949744 -11.127 -0.943147 21.5779 6.57562 -4.76837e-007 2.88658e-015 -3.33977e-007 -8.33468e-009 -2.0324e-008 4.19291 -0.0032177 2.54014e-006 30.3699 -1.93838 -8.86623 4.17603 0.298258 1.57561e-009 31.5577 -19.8479 -0.293905 6.53258 -3.90694 -2.55361 133.025 18.1401 163.594 6.5326 -3.90695 2.55371 -46.9761 18.1112 -16.4184 1.75934 -4.15839 -4.45634 24.8559 -39.9885 136.691 1.75933 -4.1584 4.45617 -155.154 -39.8928 -43.2983 11.2964 -1.06184 2.32054 151.748 8.2897 -111.908 11.2964 -1.06182 -2.32035 -28.63 13.6298 102.208 1.31489 1.30001 4.39783e-008 -177.375 -0.0479279 -179.999 12.6869 3.8147e-006 1.24345e-014 -2.57073e-007 3.36501e-009 -1.28824e-009 
